<svg xmlns="http://www.w3.org/2000/svg" width="149.5" height="36.042" viewBox="0 0 149.5 36.042">
    <defs>
        <style>
            .cls-1{fill:#597afb}
        </style>
    </defs>
    <g id="activity_main_cc_logo" transform="translate(-157.309 -58.739)">
        <path id="패스_65" d="M166.591 59.17l5.886 22.051 7.245-22.051h7.064l7.243 22.051 5.888-22.051h9.283l-10.191 34.14h-9.055l-6.7-19.787-6.7 19.787H167.5l-10.191-34.14z" class="cls-1" data-name="패스 65" transform="translate(0 .52)"/>
        <path id="패스_66" d="M204.141 87.378H191.46l-2.037 5.932h-9.465l13-34.14h9.69l12.994 34.14h-9.463zm-2.357-6.746L197.8 69.266l-3.983 11.365z" class="cls-1" data-name="패스 66" transform="translate(27.334 .52)"/>
        <path id="패스_67" d="M217.478 68.429a10.938 10.938 0 0 0-2.9-1.743 7.7 7.7 0 0 0-2.807-.567 4.556 4.556 0 0 0-2.807.817 2.54 2.54 0 0 0-1.086 2.127 2.113 2.113 0 0 0 .543 1.494 4.745 4.745 0 0 0 1.426 1.02 12.082 12.082 0 0 0 1.993.746q1.109.318 2.2.68a13.7 13.7 0 0 1 6.36 3.871 9.549 9.549 0 0 1 2.017 6.316 12.248 12.248 0 0 1-.885 4.756 9.894 9.894 0 0 1-2.58 3.646 11.9 11.9 0 0 1-4.164 2.352 17.369 17.369 0 0 1-5.594.839 20.561 20.561 0 0 1-12-3.849l3.8-7.155a15.4 15.4 0 0 0 3.941 2.626 9.468 9.468 0 0 0 3.849.861 4.6 4.6 0 0 0 3.237-1 3.087 3.087 0 0 0 .792-3.6 2.912 2.912 0 0 0-.9-1.044 7.416 7.416 0 0 0-1.653-.883q-1.02-.407-2.467-.9-1.725-.543-3.374-1.2a10.544 10.544 0 0 1-2.944-1.743 8.09 8.09 0 0 1-2.083-2.739 9.7 9.7 0 0 1-.79-4.189 12.144 12.144 0 0 1 .834-4.595 10.217 10.217 0 0 1 2.357-3.531 10.457 10.457 0 0 1 3.712-2.288 14.055 14.055 0 0 1 4.912-.814 21.507 21.507 0 0 1 5.3.7 23.46 23.46 0 0 1 5.3 2.059z" class="cls-1" data-name="패스 67" transform="translate(48.133)"/>
        <path id="패스_68" d="M219.462 73.252l10.822-14.082h10.957L227.7 75.335l14.81 17.975h-11.5L219.462 78.5v14.81h-8.874V59.17h8.874z" class="cls-1" data-name="패스 68" transform="translate(64.299 .52)"/>
    </g>
</svg>
